<?xml version="1.0" encoding="utf-8"?>
<!-- Generator: Adobe Illustrator 13.0.0, SVG Export Plug-In . SVG Version: 6.00 Build 14948)  -->
<!DOCTYPE svg PUBLIC "-//W3C//DTD SVG 1.1 Tiny//EN" "http://www.w3.org/Graphics/SVG/1.1/DTD/svg11-tiny.dtd">
<svg version="1.1" baseProfile="tiny" id="Ebene_1" xmlns="http://www.w3.org/2000/svg" xmlns:xlink="http://www.w3.org/1999/xlink"
	 x="0px" y="0px" width="400.135px" height="615.115px" viewBox="0 0 400.135 615.115" xml:space="preserve">
<polygon fill-rule="evenodd" fill="#E2001A" points="0,307.6 200.025,0 400.135,307.6 200.025,615.115 0,307.6 "/>
<polygon fill-rule="evenodd" fill="#FFE500" points="2.69,307.6 200.025,610.917 397.36,307.6 200.025,4.201 2.69,307.6 "/>
<path fill-rule="evenodd" fill="#3E3E40" d="M200.949,562.17l-0.924,1.593l-1.009-1.593c-5.798-9.83-9.75-21.349-11.513-34.125
	c-1.682-11.683-1.596-24.37,0.589-37.563c-4.455,2.434-8.321,4.45-11.936,5.968c-4.371,1.682-8.235,2.604-12.103,2.516
	c-10.757-0.335-17.313-5.797-21.6-13.357c-4.285-7.314-6.217-16.557-7.899-24.712l-0.253-1.429h1.431
	c9.244,0.171,17.061-2.017,23.363-5.544c7.311-4.204,12.689-10.254,16.053-16.646c2.773-5.373,3.949-11.259,3.949-16.386
	c-0.084-5.209-1.513-9.413-3.866-10.842c-1.933-1.094-6.303-0.841-11.093,0.417c-4.455,1.183-9.245,3.281-12.607,6.139
	c-4.791,4.033-7.984,9.242-10.084,14.287c-2.186,5.127-3.363,10.083-3.951,13.528l-0.168,1.265l-1.259-0.335
	c-2.943-0.759-5.633-1.6-7.986-2.611c-10.505-4.115-16.725-10.083-19.835-17.227c-3.024-7.144-2.941-15.381-0.671-24.117
	c0.588-2.44,1.429-4.963,2.353-7.485c-6.639-1.764-12.607-5.12-16.893-11.177c-4.538-6.385-7.227-15.634-6.976-28.991l0.085-1.176
	h1.092h225.574h1.09l0.086,1.176c0.334,13.357-2.438,22.606-6.977,28.991c-4.286,6.057-10.254,9.413-16.892,11.177
	c0.923,2.522,1.764,5.045,2.352,7.485c2.27,8.736,2.44,16.974-0.67,24.117s-9.331,13.111-19.753,17.227
	c-2.437,1.012-5.127,1.853-8.066,2.611l-1.176,0.335l-0.252-1.265c-0.588-3.445-1.768-8.401-3.951-13.528
	c-2.103-5.045-5.295-10.254-10.084-14.287c-3.363-2.857-8.154-4.956-12.608-6.139c-4.788-1.258-9.16-1.511-11.095-0.417
	c-2.352,1.429-3.78,5.633-3.78,10.842c-0.085,5.127,1.091,11.013,3.866,16.386c3.363,6.392,8.739,12.441,16.054,16.646
	c6.303,3.527,14.116,5.715,23.362,5.544h1.428l-0.252,1.429c-1.597,8.155-3.613,17.397-7.814,24.712
	c-4.371,7.561-10.927,13.022-21.684,13.357c-3.865,0.089-7.73-0.834-12.018-2.516c-3.701-1.518-7.563-3.534-12.021-5.968
	c2.185,13.193,2.27,25.881,0.673,37.563C210.783,540.822,206.832,552.34,200.949,562.17L200.949,562.17z"/>
<path fill-rule="evenodd" fill="#008BD0" d="M200.025,559.231c5.127-9.16,8.573-19.838,10.255-31.521
	c1.764-12.188,1.512-25.464-1.008-39.245l-0.42-2.44l2.098,1.265c5.299,2.939,9.748,5.373,13.867,6.973
	c3.951,1.6,7.564,2.522,11.095,2.352c9.748-0.253,15.802-5.291,19.753-12.1c3.779-6.638,5.715-15.046,7.311-22.695
	c-9.078-0.082-16.81-2.352-23.112-5.879c-7.817-4.457-13.446-10.842-16.978-17.65c-2.942-5.633-4.285-12.018-4.203-17.397
	c0.085-6.05,1.849-11.013,4.959-12.776c2.438-1.429,7.564-1.347,12.858,0.082c4.792,1.265,9.833,3.534,13.532,6.645
	c5.041,4.286,8.49,9.83,10.756,15.128c2.02,4.792,3.11,9.324,3.783,12.77c2.352-0.588,4.621-1.34,6.642-2.099
	c9.83-3.951,15.63-9.413,18.487-16.051s2.69-14.369,0.588-22.606c-0.755-2.775-1.682-5.551-2.771-8.408l-0.506-1.258l1.262-0.253
	c6.641-1.6,12.69-4.792,16.891-10.671c4.119-5.804,6.642-14.294,6.475-26.476H88.415c-0.168,12.182,2.353,20.672,6.472,26.476
	c4.286,5.879,10.254,9.071,16.894,10.671l1.261,0.253l-0.506,1.258c-1.092,2.857-2.017,5.633-2.771,8.408
	c-2.103,8.237-2.271,15.969,0.588,22.606c2.857,6.638,8.741,12.188,18.573,16.051c2.017,0.759,4.202,1.511,6.556,2.099
	c0.671-3.445,1.765-7.978,3.782-12.77c2.353-5.298,5.715-10.842,10.756-15.128c3.7-3.11,8.743-5.38,13.532-6.645
	c5.38-1.429,10.421-1.511,12.86-0.082c3.109,1.764,4.874,6.727,4.958,12.776c0.085,5.38-1.176,11.765-4.202,17.397
	c-3.529,6.809-9.16,13.193-16.978,17.65c-6.303,3.527-13.95,5.797-23.028,5.879c1.514,7.649,3.447,16.058,7.229,22.695
	c3.95,6.809,10.001,11.847,19.75,12.1c3.529,0.171,7.144-0.752,11.093-2.352c4.119-1.6,8.572-4.033,13.867-6.973l2.102-1.265
	l-0.42,2.44c-2.521,13.781-2.773,27.057-1.008,39.245C191.453,539.393,194.899,550.071,200.025,559.231L200.025,559.231z"/>
<polygon fill-rule="evenodd" fill="#3E3E40" points="200.025,308.778 38.661,308.778 39.752,306.928 199.016,61.939 200.025,60.428 
	200.949,61.939 360.298,306.928 361.474,308.778 200.025,308.778 "/>
<polygon fill-rule="evenodd" fill="#008BD0" points="200.025,306.424 357.188,306.424 200.025,64.714 42.863,306.424 
	200.025,306.424 "/>
<path fill-rule="evenodd" d="M200.025,225.574c18.995,0,36.222,7.731,48.745,20.255c12.523,12.522,20.255,29.752,20.255,48.746
	c0,19.076-7.731,36.22-20.255,48.744c-12.523,12.441-29.75,20.255-48.745,20.255c-18.992,0-36.222-7.813-48.746-20.255
	c-12.438-12.523-20.253-29.668-20.253-48.744c0-18.994,7.815-36.224,20.253-48.746C163.803,233.305,181.033,225.574,200.025,225.574
	L200.025,225.574z"/>
<path fill-rule="evenodd" fill="#FFFFFF" d="M258.183,329.366v-28.656l9.581-2.186C267.09,309.786,263.649,320.206,258.183,329.366
	L258.183,329.366z M258.183,289.111v-29.332c6.136,10.17,9.666,22.104,9.666,34.795c0,1.259,0,2.437-0.085,3.615L258.183,289.111
	L258.183,289.111z M258.183,259.779v29.332l-3.78-3.615c-0.168-3.36-0.592-6.303-1.429-9.077c-0.673-2.268-1.515-4.453-2.608-6.47
	v-15.884l0.588-4.204C253.644,252.972,256.084,256.25,258.183,259.779L258.183,259.779z M258.183,300.709v28.656
	c-2.27,3.787-4.874,7.232-7.817,10.507v-37.399L258.183,300.709L258.183,300.709z M250.366,290.792
	c0.588-1.009,1.18-2.017,1.768-3.025c0-4.12-0.506-7.563-1.347-10.674c-0.167-0.421-0.249-0.841-0.421-1.262V290.792
	L250.366,290.792z M221.54,235.408l6.727-2.522c-2.188-0.923-4.457-1.848-6.727-2.604V235.408L221.54,235.408z M250.366,254.066
	v15.884c-0.502-1.094-1.09-2.103-1.678-3.11L250.366,254.066L250.366,254.066z M250.366,275.832
	c-0.837-2.689-2.016-5.127-3.527-7.48c-7.984-5.629-12.355-7.311-20.842-7.144l-4.457,6.892v11.934l5.465,17.23l11.01,7.731
	c5.294-4.117,9.245-8.993,12.352-14.203V275.832L250.366,275.832z M250.366,302.473v37.399c-0.755,0.923-1.596,1.764-2.437,2.604
	c-7.312,7.314-16.304,13.029-26.39,16.393v-54.882l5.127-4.203l12.441,8.74l1.343-1.85l-2.103-1.512L250.366,302.473
	L250.366,302.473z M221.54,263.729v-9.916c1.094,1.932,1.934,3.864,2.607,5.966L221.54,263.729L221.54,263.729z M200.025,226.75
	c-5.211,0-10.252,0.588-15.212,1.766v5.211l8.825,4.623l18.573,0.504l9.328-3.445v-5.127
	C214.816,228.009,207.504,226.75,200.025,226.75L200.025,226.75z M221.54,253.813v9.916l-4.536,7.144h-26.979
	c-1.513-2.436-3.362-5.042-5.211-7.731v-11.093c2.606-4.372,6.135-8.068,10.086-11.346l15.462,0.421
	C214.649,244.735,218.767,248.938,221.54,253.813L221.54,253.813z M221.54,268.1l-2.52,3.95l2.52,7.984V268.1L221.54,268.1z
	 M221.54,303.987v54.882c-6.724,2.27-14.035,3.527-21.515,3.527c-5.211,0-10.252-0.588-15.212-1.764v-57.152l17.65,16.471
	L221.54,303.987L221.54,303.987z M184.813,280.539l3.025-8.824c-0.923-1.429-1.931-2.943-3.025-4.456V280.539L184.813,280.539z
	 M184.813,228.515c-2.184,0.504-4.37,1.092-6.47,1.849l6.47,3.362V228.515L184.813,228.515z M184.813,252.048v11.093
	c-0.588-0.925-1.26-1.85-1.933-2.772c-0.335-0.506-0.672-0.924-1.009-1.43C182.629,256.417,183.637,254.148,184.813,252.048
	L184.813,252.048z M184.813,267.259c-1.176-1.849-2.521-3.698-3.78-5.547c-0.337-0.504-0.673-0.925-1.01-1.429
	c-8.572,0.253-17.565,0.924-25.886,2.941c-0.839,2.606-1.596,5.127-2.352,7.648c-1.261,4.539-2.186,8.994-2.606,13.448
	c5.547,7.396,10.589,12.775,15.211,16.977l15.044-4.874l5.378-15.885V267.259L184.813,267.259z M184.813,303.481l-5.042-4.707
	l-15.044,4.876l-2.859,5.966l-29.246-8.656l14.203-16.64c0.42-4.623,1.429-9.33,2.773-14.034c0.756-2.69,1.513-5.38,2.438-8.07
	l-4.539-10.421c-9.581,11.683-15.296,26.559-15.296,42.779c0,18.741,7.648,35.632,19.918,47.903
	c8.825,8.825,20.171,15.299,32.693,18.156V303.481L184.813,303.481z"/>
<path fill-rule="evenodd" fill="#DE2225" d="M200.025,305.752c-52.023-0.253-94.129-7.062-158.423-57.823
	c0.924,14.12,2.186,28.323,4.539,43.282L5.296,303.567c50.846,54.626,123.628,73.787,194.729,73.958
	c71.103-0.171,143.884-19.332,194.729-73.958l-40.844-12.356c2.352-14.958,3.697-29.162,4.621-43.282
	C294.154,298.691,252.047,305.5,200.025,305.752L200.025,305.752z"/>
<path fill-rule="evenodd" fill="#FFE500" d="M200.025,185.568c6.219,5.968,11.767,27.819,0,27.819
	C188.007,213.387,193.889,191.536,200.025,185.568L200.025,185.568z"/>
<path fill-rule="evenodd" fill="#FFE500" d="M179.267,187.501c7.312,4.706,16.808,25.13,5.295,27.398
	C172.71,217.169,174.392,194.645,179.267,187.501L179.267,187.501z"/>
<path fill-rule="evenodd" fill="#FFE500" d="M159.18,193.469c8.068,3.277,21.349,21.431,10.505,25.802
	C158.424,223.81,155.735,201.37,159.18,193.469L159.18,193.469z"/>
<path fill-rule="evenodd" fill="#FFE500" d="M140.69,203.135c8.489,1.596,25.045,16.975,15.128,23.363
	C145.734,233.054,138.757,211.538,140.69,203.135L140.69,203.135z"/>
<path fill-rule="evenodd" fill="#FFE500" d="M124.301,216.161c8.658,0,27.819,11.849,19.332,20.002
	C134.976,244.568,124.05,224.733,124.301,216.161L124.301,216.161z"/>
<path fill-rule="evenodd" fill="#FFE500" d="M110.688,232.044c8.572-1.68,29.583,6.304,22.859,15.969
	C126.571,257.93,112.116,240.533,110.688,232.044L110.688,232.044z"/>
<path fill-rule="evenodd" fill="#FFE500" d="M100.434,250.283c8.068-3.362,30.256,0.504,25.465,11.262
	C120.94,272.639,103.46,258.351,100.434,250.283L100.434,250.283z"/>
<path fill-rule="evenodd" fill="#FFE500" d="M93.794,270.033c7.313-4.707,29.751-5.21,27.146,6.303
	C118.251,288.102,98.248,277.428,93.794,270.033L93.794,270.033z"/>
<path fill-rule="evenodd" fill="#FFE500" d="M220.784,187.501c5.041,7.144,6.303,29.584-5.295,27.398
	C203.639,212.546,213.64,192.293,220.784,187.501L220.784,187.501z"/>
<path fill-rule="evenodd" fill="#FFE500" d="M240.872,193.469c3.527,7.9,0.502,30.256-10.422,25.802
	C219.188,214.732,232.887,196.747,240.872,193.469L240.872,193.469z"/>
<path fill-rule="evenodd" fill="#FFE500" d="M259.359,203.135c2.021,8.486-5.294,29.75-15.128,23.363
	C234.063,219.859,250.954,204.815,259.359,203.135L259.359,203.135z"/>
<path fill-rule="evenodd" fill="#FFE500" d="M275.749,216.161c0.334,8.656-10.842,28.238-19.329,20.002
	C247.676,227.76,267.176,216.161,275.749,216.161L275.749,216.161z"/>
<path fill-rule="evenodd" fill="#FFE500" d="M289.366,232.044c-1.348,8.574-16.055,25.633-22.863,15.969
	C259.612,238.096,280.875,230.448,289.366,232.044L289.366,232.044z"/>
<path fill-rule="evenodd" fill="#FFE500" d="M299.62,250.199c-2.943,8.237-20.676,22.104-25.468,11.346
	C269.278,250.536,291.635,247.088,299.62,250.199L299.62,250.199z"/>
<path fill-rule="evenodd" fill="#FFE500" d="M306.256,270.033c-4.453,7.48-24.455,17.816-27.145,6.303
	C276.421,264.57,299.028,265.411,306.256,270.033L306.256,270.033z"/>
<path fill-rule="evenodd" fill="#FFE500" d="M184.141,320.042c-6.219-0.253-9.413-1.518-9.58-5.127
	c-0.169-2.775,1.512-4.122,3.277-4.033c1.344,0.082,2.521,1.005,2.521,2.769c-0.085,1.012-0.336,2.105,0.169,2.946
	c0.504,0.923,1.931,1.258,3.529,1.34c1.68,0.171,2.857,0.253,3.529-0.752c0.588-0.841,0.337-2.105,0.841-3.199
	c0.337-0.923,1.262-1.764,2.774-1.593c1.765,0.082,3.109,1.176,2.774,3.698C193.471,319.618,190.865,320.206,184.141,320.042
	L184.141,320.042z"/>
<path fill-rule="evenodd" fill="#FFE500" d="M332.561,287.094l5.466,9.833l-0.927,0.504c-1.849-1.933-3.363-3.194-4.621-3.782
	c-1.261-0.674-2.689-0.925-4.203-0.841c-0.842,0.083-2.103,0.588-3.781,1.512l-2.775,1.512l15.549,27.988
	c1.008,1.846,1.768,2.939,2.27,3.274c0.42,0.342,1.094,0.506,1.85,0.588c0.84,0,1.764-0.335,2.775-0.841l1.176-0.67l0.588,0.923
	l-19.08,10.589l-0.502-1.005l1.176-0.67c1.094-0.595,1.85-1.265,2.27-1.935c0.335-0.506,0.42-1.176,0.335-1.935
	c0-0.506-0.503-1.682-1.511-3.527l-15.549-27.99l-2.689,1.514c-2.438,1.343-3.951,2.857-4.453,4.454
	c-0.76,2.353-0.588,4.959,0.502,7.899l-1.008,0.506l-5.463-9.833L332.561,287.094L332.561,287.094z"/>
<path fill-rule="evenodd" fill="#FFE500" d="M288.945,340.043l-14.205,3.78l-0.673,4.368c-0.168,1.518-0.168,2.604,0.085,3.445
	c0.253,1.183,0.927,1.853,2.017,2.188c0.592,0.171,2.02,0,4.119-0.335l0.252,1.005l-13.278,3.616l-0.339-1.094
	c1.43-0.588,2.441-1.511,3.111-2.775c0.673-1.176,1.261-3.527,1.764-6.973l5.8-35.8l0.591-0.089l23.277,28.916
	c2.188,2.769,3.869,4.45,4.959,4.956c0.841,0.506,1.935,0.588,3.11,0.335l0.335,1.094l-19.414,5.209l-0.335-1.094l0.841-0.164
	c1.511-0.424,2.604-1.012,3.11-1.6c0.335-0.417,0.417-0.923,0.249-1.511c-0.082-0.335-0.249-0.67-0.416-1.094
	c-0.086-0.171-0.588-0.759-1.515-1.935L288.945,340.043L288.945,340.043z"/>
<polygon fill-rule="evenodd" fill="#DE2225" points="287.348,338.109 277.682,325.92 275.161,341.383 287.348,338.109 "/>
<path fill-rule="evenodd" fill="#FFE500" d="M235.157,343.653l1.008,11.519c0.168,2.181,0.42,3.609,0.756,4.197
	c0.334,0.506,0.84,0.93,1.596,1.265c0.759,0.253,2.02,0.335,3.865,0.164l0.086,1.094l-21.01,1.853l-0.086-1.094
	c1.935-0.171,3.195-0.506,3.865-0.923c0.588-0.424,1.094-0.93,1.262-1.518c0.253-0.588,0.253-2.017,0.086-4.197l-2.355-26.899
	c-0.168-2.27-0.502-3.609-0.756-4.197c-0.334-0.588-0.84-1.012-1.596-1.265c-0.759-0.253-2.017-0.335-3.951-0.164l-0.082-1.176
	l18.067-1.518c5.882-0.588,10.254,0.171,13.026,2.017c2.775,1.935,4.285,4.457,4.624,7.649c0.167,2.693-0.421,5.045-1.935,7.062
	c-1.511,2.099-3.698,3.616-6.556,4.539C243.141,342.73,239.863,343.236,235.157,343.653L235.157,343.653z"/>
<path fill-rule="evenodd" fill="#DE2225" d="M233.393,323.398l1.51,17.903c0.674,0,1.176-0.082,1.515-0.082
	c2.519-0.253,4.368-1.094,5.548-2.693c1.258-1.593,1.678-3.944,1.428-7.055c-0.252-3.11-1.094-5.298-2.607-6.556
	c-1.429-1.347-3.531-1.853-6.217-1.6L233.393,323.398L233.393,323.398z"/>
<path fill-rule="evenodd" fill="#FFE500" d="M128.924,344.917l-14.287-3.534l-2.69,3.445c-0.841,1.183-1.429,2.188-1.596,3.11
	c-0.337,1.094-0.084,2.017,0.755,2.775c0.422,0.506,1.682,1.012,3.782,1.764l-0.335,1.094l-13.364-3.363l0.253-1.094
	c1.513,0.089,2.857-0.164,4.035-0.923c1.176-0.752,2.857-2.522,4.958-5.209l22.439-28.492l0.588,0.082l6.305,36.647
	c0.589,3.445,1.176,5.715,1.933,6.809c0.504,0.752,1.345,1.34,2.606,1.764l-0.337,1.094l-19.498-4.874l0.251-1.094l0.841,0.164
	c1.596,0.424,2.69,0.506,3.445,0.171c0.504-0.171,0.841-0.588,1.008-1.176c0.085-0.335,0.169-0.759,0.085-1.176
	c0-0.171-0.085-1.012-0.336-2.44L128.924,344.917L128.924,344.917z"/>
<polygon fill-rule="evenodd" fill="#DE2225" points="128.42,342.477 125.899,327.096 116.233,339.456 128.42,342.477 "/>
<path fill-rule="evenodd" fill="#FFE500" d="M175.569,351.302l15.379-22.101c0.085-2.105,0-3.363-0.167-3.869
	c-0.167-0.588-0.672-1.005-1.345-1.429c-0.672-0.417-1.598-0.67-2.774-0.752h-1.345l0.086-1.183l21.596,0.759l-0.082,1.176
	l-1.346-0.082c-1.176,0-2.183,0.171-2.939,0.588c-0.505,0.253-0.925,0.759-1.262,1.429c-0.253,0.506-0.42,1.764-0.504,3.862
	l-0.925,27.316c-0.084,2.105,0,3.445,0.169,3.951c0.251,0.588,0.672,1.012,1.344,1.429c0.673,0.417,1.598,0.67,2.773,0.759h1.344
	v1.176l-21.683-0.759l0.086-1.176l1.343,0.082c1.178,0,2.186-0.164,2.943-0.588c0.504-0.253,0.924-0.752,1.259-1.429
	c0.253-0.417,0.42-1.764,0.504-3.862l0.757-22.695L175.4,355.923l-0.082,0.171c0,2.188,0,3.527,0.251,4.033
	c0.251,0.506,0.672,1.012,1.345,1.429c0.671,0.424,1.596,0.67,2.772,0.67l1.347,0.089l-0.085,1.094l-21.684-0.759l0.085-1.094
	l1.343,0.082c1.176,0,2.186-0.164,2.941-0.588c0.506-0.253,0.925-0.752,1.262-1.429c0.251-0.499,0.42-1.764,0.506-3.862
	l0.924-27.316c0.082-2.099,0-3.445-0.169-3.951c-0.251-0.588-0.673-1.094-1.345-1.511c-0.672-0.424-1.596-0.588-2.773-0.67h-1.345
	v-1.176l21.767,0.752l-0.083,1.176l-1.343-0.082c-1.178,0-2.186,0.171-2.943,0.506c-0.588,0.335-1.008,0.752-1.345,1.511
	c-0.251,0.424-0.335,1.764-0.42,3.78L175.569,351.302L175.569,351.302z"/>
<path fill-rule="evenodd" fill="#FFE500" d="M79.926,312.221l4.707,22.777c0.673,3.281,1.429,5.633,2.354,7.144
	c0.673,1.094,1.514,1.853,2.606,2.44l-0.504,1.005l-19.246-9.83l0.504-1.012c1.261,0.506,2.102,0.67,2.604,0.588
	c0.506-0.082,0.843-0.335,1.094-0.67c0.337-0.759,0.253-2.693-0.335-5.633l-3.026-14.957l-2.017,0.499l-5.127,10.001
	c-1.009,1.935-1.431,3.199-1.513,3.787c0,0.588,0.251,1.176,0.672,1.846c0.42,0.677,1.345,1.347,2.688,2.017l-0.502,1.012
	l-18.659-9.495l0.506-1.012l1.259,0.588c1.009,0.588,2.017,0.841,2.857,0.759c0.588,0,1.176-0.253,1.766-0.759
	c0.42-0.335,1.092-1.429,2.017-3.192l12.438-24.374c0.924-1.849,1.429-3.109,1.512-3.697c0-0.589-0.167-1.177-0.588-1.849
	c-0.418-0.674-1.176-1.262-2.184-1.766l-1.262-0.672l0.504-1.01l18.49,9.413l-0.588,1.008c-1.178-0.671-2.27-0.923-3.109-0.923
	c-0.589,0-1.177,0.251-1.765,0.755c-0.421,0.337-1.178,1.429-2.103,3.278l-5.882,11.515l19.414-4.12
	c2.688-0.503,4.286-1.26,4.79-2.185c0.337-0.757,0.169-1.429-0.337-2.27c-0.336-0.42-1.261-1.008-2.857-1.933l0.504-1.008
	l14.457,7.395l-0.504,1.008c-1.345-0.588-2.437-0.839-3.362-0.839c-0.924,0-3.277,0.337-7.06,1.176L79.926,312.221L79.926,312.221z"
	/>
</svg>
