<?xml version="1.0" encoding="UTF-8" standalone="no"?>
<!-- Created with Inkscape (http://www.inkscape.org/) -->

<svg
   width="1080"
   height="1080"
   viewBox="0 0 1080 1080"
   version="1.1"
   id="svg1"
   xml:space="preserve"
   inkscape:version="1.4 (86a8ad7, 2024-10-11)"
   sodipodi:docname="drawing.svg"
   xmlns:inkscape="http://www.inkscape.org/namespaces/inkscape"
   xmlns:sodipodi="http://sodipodi.sourceforge.net/DTD/sodipodi-0.dtd"
   xmlns="http://www.w3.org/2000/svg"
   xmlns:svg="http://www.w3.org/2000/svg"><sodipodi:namedview
     id="namedview1"
     pagecolor="#ffffff"
     bordercolor="#000000"
     borderopacity="0.25"
     inkscape:showpageshadow="2"
     inkscape:pageopacity="0.0"
     inkscape:pagecheckerboard="0"
     inkscape:deskcolor="#d1d1d1"
     inkscape:document-units="px"
     inkscape:zoom="0.53"
     inkscape:cx="540.56604"
     inkscape:cy="570.75472"
     inkscape:window-width="1920"
     inkscape:window-height="1009"
     inkscape:window-x="-8"
     inkscape:window-y="-8"
     inkscape:window-maximized="1"
     inkscape:current-layer="g1" /><defs
     id="defs1"><style
       id="style1">.cls-1{fill:#cfb986;}.cls-2,.cls-3{fill:#fff;}.cls-3,.cls-4,.cls-5{fill-rule:evenodd;}.cls-4{fill:#e31f26;}.cls-6{fill:#e41e26;}.cls-5,.cls-7{fill:#cfba87;}.cls-8{fill:#e80011;}.cls-9{fill:#f20012;}</style></defs><g
     inkscape:label="Layer 1"
     inkscape:groupmode="layer"
     id="layer1"><g
       id="g1"
       transform="translate(291.35676,488.603)"><g
         id="OSFP"
         transform="matrix(8,0,0,8,-58.490566,-383.01886)"><path
           class="cls-3"
           d="m 79.152,63.217 c 0,21.857 -17.72,39.577 -39.576,39.577 C 17.72,102.794 0,85.074 0,63.217 0,41.36 17.716,23.643 39.576,23.643 c 21.86,0 39.576,17.715 39.576,39.573"
           id="path26" /><path
           class="cls-4"
           d="M 65.586,37.207 C 58.635,30.256 49.399,26.434 39.576,26.434 c -9.823,0 -19.066,3.822 -26.01,10.773 -6.951,6.949 -10.777,16.183 -10.777,26.01 0,9.827 3.826,19.065 10.777,26.012 6.944,6.95 16.184,10.774 26.01,10.774 9.826,0 19.059,-3.824 26.01,-10.774 6.946,-6.947 10.77,-16.187 10.77,-26.012 0,-9.825 -3.823,-19.06 -10.77,-26.01 z m -0.302,51.721 c -6.868,6.865 -16,10.646 -25.708,10.646 -9.708,0 -18.843,-3.781 -25.708,-10.646 C 6.998,82.062 3.219,72.929 3.219,63.217 c 0,-9.712 3.779,-18.838 10.649,-25.708 6.865,-6.868 15.995,-10.647 25.708,-10.647 9.713,0 18.84,3.778 25.708,10.647 6.865,6.87 10.647,15.999 10.647,25.708 0,9.709 -3.782,18.846 -10.647,25.711 z M 39.576,27.602 c -19.675,0 -35.616,15.945 -35.616,35.615 0,19.67 15.94,35.62 35.616,35.62 19.676,0 35.614,-15.946 35.614,-35.62 0,-19.674 -15.946,-35.615 -35.614,-35.615 z m 0,63.611 c -15.465,0 -27.996,-12.537 -27.996,-27.997 0,-15.46 12.531,-27.992 27.996,-27.992 15.465,0 27.989,12.53 27.989,27.992 0,15.462 -12.526,27.997 -27.989,27.997 z m 0,-55.261 c -15.033,0 -27.265,12.233 -27.265,27.264 0,15.031 12.232,27.269 27.265,27.269 15.033,0 27.259,-12.236 27.259,-27.269 0,-15.033 -12.226,-27.264 -27.259,-27.264 z m 0,54.106 c -14.802,0 -26.84,-12.046 -26.84,-26.841 0,-14.795 12.038,-26.838 26.84,-26.838 14.802,0 26.835,12.041 26.835,26.838 0,14.797 -12.039,26.841 -26.835,26.841 z M 49.257,76.25 c 0.055,0.035 0.045,0.164 -0.024,0.188 -0.182,-0.024 -0.598,-0.025 -0.938,-0.025 -0.34,0 -0.791,0.001 -0.933,0.025 -0.075,-0.024 -0.08,-0.152 -0.029,-0.188 l 0.209,-0.025 c 0.453,-0.055 0.47,-0.122 0.47,-0.653 v -1.57 c 0,-0.528 -0.022,-0.575 -0.47,-0.652 l -0.129,-0.027 c -0.05,-0.035 -0.048,-0.167 0.018,-0.18 0.153,0.013 0.526,0.019 0.865,0.019 0.339,0 0.677,-0.006 0.861,-0.019 0.073,0.013 0.078,0.145 0.027,0.18 l -0.131,0.027 c -0.448,0.077 -0.47,0.124 -0.47,0.652 v 1.57 c 0,0.531 0.016,0.616 0.429,0.653 l 0.246,0.025 z m 3.417,-1.587 c 0,0.786 -0.333,1.654 -1.133,2.396 -0.537,0.491 -1.232,0.776 -1.784,0.871 -0.05,-0.026 -0.09,-0.12 -0.037,-0.167 0.436,-0.151 0.797,-0.351 1.098,-0.585 0.403,-0.301 1.222,-1.161 1.222,-2.556 0,-0.509 -0.167,-1.315 -0.916,-1.315 -0.473,0 -0.78,0.397 -0.78,0.929 0,0.476 0.282,1.109 0.797,1.109 0.155,0 0.256,-0.016 0.369,-0.064 0.056,0.019 0.061,0.079 0.048,0.138 -0.198,0.16 -0.44,0.265 -0.747,0.265 -0.591,0 -1.013,-0.508 -1.013,-1.137 0,-0.882 0.705,-1.49 1.505,-1.49 0.925,0 1.372,0.668 1.372,1.605 z m 3.758,0.987 c -0.137,0.292 -0.267,0.567 -0.359,0.788 -0.287,-0.024 -0.612,-0.025 -1.05,-0.025 h -0.759 c -0.256,0 -0.521,0.001 -0.684,0.025 -0.041,-0.024 -0.071,-0.087 -0.044,-0.133 0.222,-0.174 0.468,-0.374 0.772,-0.698 0.404,-0.429 0.794,-0.869 0.794,-1.357 0,-0.473 -0.259,-0.742 -0.678,-0.742 -0.33,0 -0.584,0.203 -0.784,0.524 -0.079,0.026 -0.155,-0.036 -0.155,-0.11 0.18,-0.381 0.624,-0.863 1.227,-0.863 0.615,0 0.997,0.369 0.997,0.89 0,0.463 -0.231,0.753 -0.692,1.257 l -0.601,0.654 c -0.005,0.063 0.015,0.107 0.146,0.107 h 0.916 c 0.415,0 0.587,-0.007 0.768,-0.379 0.066,-0.038 0.156,-0.006 0.186,0.064 z m 2.492,-2.508 c -0.051,0.165 -0.195,0.46 -0.438,0.489 l -0.976,0.144 c -0.226,0.03 -0.267,0.088 -0.298,0.211 -0.048,0.139 0,0.229 0.21,0.37 0.126,0.085 0.264,0.176 0.364,0.248 0.499,0.345 0.854,0.781 0.854,1.386 0,1.068 -1.137,1.77 -1.702,1.937 -0.087,-0.032 -0.12,-0.156 -0.056,-0.211 0.42,-0.129 1.226,-0.7 1.226,-1.547 0,-0.484 -0.301,-0.828 -0.628,-1.068 -0.331,-0.237 -0.609,-0.388 -0.609,-0.66 0,-0.127 0.068,-0.384 0.169,-0.614 0.102,-0.239 0.24,-0.47 0.34,-0.504 0.1,-0.028 0.252,-0.048 0.501,-0.089 l 0.538,-0.079 c 0.286,-0.04 0.336,-0.063 0.418,-0.115 0.071,0.01 0.096,0.052 0.088,0.101 z m 5.408,-10.89 c -0.846,-1.285 -2.523,-3.068 -6.22,-3.286 0.917,-0.295 3.03,-2.907 3.189,-4.333 -0.836,-0.761 -2.228,-0.876 -3.251,-1.094 0.328,-2.23 -1.483,-3.628 -1.714,-3.826 -0.08,-0.223 -0.217,-3.439 -4.339,-4.468 -0.117,-0.03 -1.099,-2.354 -3.572,-3.488 -3.811,-1.752 -6.735,-0.426 -7.374,-0.256 -5.865,-0.906 -7.276,1.82 -7.67,2.215 -0.184,0.179 -2.352,-0.231 -4.416,2.064 -0.555,-0.054 -2.912,-1.327 -3.725,-1.127 -0.332,0.918 0.1,4.453 0.284,5.114 -1.976,0.441 -5.25,-0.848 -5.982,-0.19 -0.246,1.44 1.058,3.136 1.058,3.161 -1.508,-0.155 -4.388,0.021 -5.293,0.71 -0.191,0.187 0.331,1.356 1.092,2.103 0.819,0.806 2.153,1.491 3.894,1.633 0,0.026 -3.14,1.922 -4.189,3.3 0.308,0.195 2.528,0.838 2.754,0.912 1.223,0.392 4.654,-0.755 4.711,-0.755 -0.189,0.935 -0.83,3.427 -0.847,3.903 0.027,0.725 1.441,1.718 1.948,2.037 0.008,1.607 -0.159,6.279 -0.159,6.279 -0.004,0.716 -0.108,1.727 0.086,2.294 0.692,0.132 3.309,-0.554 3.409,-0.483 0.249,0.363 0.271,1.564 0.414,2.027 0.457,0.105 0.787,0.334 1.283,0.387 0.136,0.411 -0.213,1.104 0.016,1.476 0.178,0.523 1.021,0.662 1.511,0.861 0,0.938 0.035,1.868 0.035,2.803 0.246,0.504 2.099,1.178 2.609,1.472 0,-0.029 4.051,-3.918 4.053,-3.926 0.759,0.765 1.292,1.356 1.823,2.223 -0.61,1.752 -2.881,4.901 -3.028,5.098 -0.095,0.172 0.521,0.606 0.593,0.721 0.804,-0.951 1.111,-1.392 1.839,-2.634 0.724,-1.248 1.115,-1.888 1.739,-3.42 -0.682,-0.878 -1.471,-1.713 -2.118,-2.512 0.342,-0.993 0.79,-1.281 1.322,-2.232 -0.23,-0.149 -0.381,-0.267 -0.688,-0.231 -1.936,2.283 -3.472,3.732 -5.604,5.71 -0.273,-0.205 -1.168,-0.515 -1.47,-0.67 -0.108,-0.589 0.116,-2.498 -0.088,-2.824 -0.232,-0.594 -1.031,-0.53 -1.505,-0.861 -0.031,-0.013 -0.124,-0.077 -0.152,-0.094 0.072,-2.087 -0.013,-1.543 -1.326,-2.197 -0.06,-0.029 -0.122,-0.243 -0.111,-0.41 0.006,-0.645 -0.047,-1.8 -0.219,-2.295 -0.59,0.024 -2.995,0.749 -3.384,0.956 -0.057,0.014 -0.085,0.012 -0.101,-0.016 l -0.024,-0.088 v -0.197 c 0,-1.655 -0.005,-3.757 0.19,-5.277 0.066,-0.49 0.096,-0.997 0.159,-1.43 0.042,-0.314 0.055,-0.464 0.173,-0.676 1.461,0.024 2.696,0.444 4.076,0.592 0.594,-0.623 1.411,-1.013 2.12,-1.529 0.495,-0.356 1.112,-0.778 1.528,-1.105 0.056,-0.055 0.083,-0.1 0.085,-0.171 0.006,-0.065 -0.047,-0.538 -0.168,-0.759 -0.474,0.012 -1.542,0.448 -2.211,0.677 -1.141,0.392 -2.325,0.628 -3.398,0.937 -0.803,0.229 -1.763,0.561 -2.46,0.676 -0.628,-0.031 -1.33,-0.653 -1.526,-1.102 -0.325,-0.74 0.815,-3.56 0.589,-4.755 1.1,-1.105 1.628,-1.831 2.124,-2.038 -0.79,1.275 -1.17,2.5 -1.209,4.039 1.324,-0.175 2.919,-0.25 4.249,-0.75 2.142,-0.815 2.995,-1.785 3.752,-2.782 0.524,2.896 1.56,3.833 2.314,6.14 1.594,0.067 2.771,-4.442 2.802,-4.442 0.673,2.64 1.579,3.163 1.932,4.841 0.634,-0.094 1.217,-1.461 1.591,-1.536 0.069,0.302 0.103,0.427 0.193,0.678 2.718,-0.219 4.758,-2.361 4.788,-2.361 -1.208,2.93 1.465,6.776 1.754,7.04 1.035,-0.435 2.317,-2.313 2.549,-2.549 0.501,1.114 1.163,2.153 2.122,2.797 0.457,0.322 0.846,0.523 1.323,0.822 0.478,-0.432 0.826,-1.931 1.076,-2.217 1.19,1.31 3.689,2.722 5.486,2.064 0,0 -0.3,-4.364 -3.142,-6.041 0.402,0.048 0.986,0.207 1.37,0.285 0.639,0.12 3.613,-0.385 4.672,-1.615 z M 60.086,55.12 c -0.176,0.527 -0.562,0.77 -0.936,1.1 -2.894,2.586 -3.809,1.928 -6.963,1.53 1.903,-3.192 6.335,-3.574 7.899,-2.629 z M 49.055,48.906 c 1.017,2.958 -0.521,6.691 -5.977,7.549 0,-0.026 4.756,-2.166 4.961,-5.242 -0.519,-0.192 -1.489,-0.373 -1.468,-0.346 0.557,-0.86 1.811,-1.799 2.483,-1.961 z M 25.999,45.639 c 0.927,0.174 3.48,1.487 4.041,2.061 0.53,0.547 0.737,1.5 0.938,2.33 0.283,1.141 0.293,2.498 -0.109,3.142 -1.398,-0.149 -4.066,-2.757 -4.519,-4.408 -0.449,-1.647 -0.4,-2.305 -0.351,-3.125 z m -9.436,8.446 c 0.61,-0.767 4.509,-0.716 5.192,-0.298 0.525,0.326 1.677,1.161 2.345,1.371 -0.291,0.518 -1.972,1.073 -3.13,1.048 -1.616,-0.028 -3.667,-0.933 -4.407,-2.12 z m 5.945,5.845 c -0.476,0.228 -1.132,0.242 -1.622,0.308 -0.927,0.13 -1.902,-0.283 -2.624,-0.453 0,-0.086 3.303,-2.513 5.25,-3.228 0.414,-0.158 2.252,-0.244 2.632,-0.031 -0.275,0.904 -2.773,2.993 -3.637,3.403 z m 3.056,-4.848 c -1.638,-0.545 -4.667,-3.209 -5.048,-4.804 1.208,0.053 2.022,0.226 2.976,0.496 1.452,0.194 2.277,0.243 3.678,1.337 0.698,0.551 1.464,1.949 1.537,2.51 -0.489,0.38 -2.15,0.793 -3.143,0.462 z m 4.465,4.887 c -0.894,0.453 -2.13,0.399 -3.487,0.75 1.242,-5.688 5.545,-6.006 6.563,-6.013 0.013,1.433 -0.54,3.998 -3.076,5.263 z m 2.797,-7.703 c -1.445,-2.356 -1.47,-4.307 -0.257,-7.001 1.487,0.203 4.541,4.856 1.702,8.411 -0.57,-0.287 -1.08,-0.815 -1.445,-1.41 z m 3.402,10.828 c -0.34,-1.443 -1.284,-2.484 -1.65,-4.008 -0.108,-0.45 -0.286,-1.256 -0.056,-1.924 0.294,-0.861 0.808,-1.734 1.307,-2.358 1.902,0.832 2.601,6.434 0.399,8.289 z m -0.11,-9.874 c 0.195,-2.531 3.021,-4.903 6.916,-5.333 -0.089,2.387 -2.315,4.782 -4.282,5.333 -0.828,0.097 -2.496,0.083 -2.635,0 z m 4.678,10.474 c -0.29,-1.356 -2.3,-4.636 -1.716,-6.515 0.156,-0.504 0.322,-1.033 0.545,-1.577 0.862,0.382 1.947,2.19 2.168,2.891 0.651,2.121 -0.56,5.026 -0.996,5.2 z m 0.859,-8.574 c -0.765,-0.177 -1.507,-0.52 -1.964,-0.849 2.012,-2.129 5.206,-3.463 7.064,-2.716 -0.432,1.242 -1.766,2.48 -3.02,3.002 -0.335,0.138 -1.511,0.694 -2.08,0.563 z m 1.124,7.966 c 0.21,-1.527 0.604,-3.878 1.668,-4.592 0.692,-0.474 2.139,-0.891 2.897,-0.991 0.536,1.535 -1.738,5.404 -4.565,5.583 z m 6.283,4.242 c -0.259,-0.542 -0.723,-1.181 -0.965,-1.738 -0.552,-1.25 -0.251,-3.759 0.285,-4.911 0.388,-0.842 1.265,-1.196 1.783,-1.886 1.797,1.724 -0.446,8.245 -1.103,8.535 z M 46.755,56.479 c 1.483,-0.758 2.259,-2.253 3.566,-3.145 2.19,-1.494 4.088,-1.17 4.502,-0.762 -0.475,0.897 -1.863,2.538 -2.804,3.308 -1.701,0.994 -4.785,1.087 -5.264,0.599 z m 7.813,11.975 c -0.824,-0.256 -1.642,-1.239 -2.04,-1.79 -1.3,-1.929 -0.765,-4.338 0.254,-6.112 0.32,0.261 0.69,0.742 1.02,1.186 1.64,2.285 1.251,3.675 0.765,6.715 z m 3.805,-3.781 c 0.982,1.04 1.995,2.728 2.315,4.404 -2.782,-0.107 -4.497,-2.721 -4.506,-5.557 0.807,0.096 1.73,0.662 2.191,1.153 z M 54.89,60.485 c 1.735,-2.16 8.29,0.656 8.29,1.612 -1.152,0.5 -1.979,0.514 -2.91,0.599 -2.135,0.197 -5.087,-1.814 -5.381,-2.211 z"
           id="path27" /><path
           class="cls-3"
           d="m 19.157,42.193 c 1.083,-1.051 1.198,-2.684 0.139,-3.773 -1.059,-1.093 -2.64,-1.072 -3.774,0.032 -1.079,1.051 -1.199,2.684 -0.141,3.775 1.065,1.091 2.642,1.072 3.776,-0.033 z m -3.012,-3.099 c 0.75,-0.726 1.778,-0.743 2.476,-0.017 0.704,0.719 0.618,1.791 -0.09,2.473 -0.75,0.732 -1.774,0.748 -2.477,0.023 -0.705,-0.723 -0.614,-1.792 0.091,-2.479 z m 5.58,-3.068 0.642,3.483 -0.893,0.165 -0.958,-5.244 0.22,-0.147 4.428,2.967 -0.501,0.756 -2.938,-1.981 z m 4.357,-1.188 -2.666,-1.835 0.554,-0.696 2.112,1.456 0.293,-2.548 0.885,0.033 -0.363,3.217 0.826,1.816 -0.816,0.374 z m 7.581,-3.847 -1.166,2.303 -0.155,0.035 -2.073,-1.539 0.502,3.449 -0.884,0.123 -0.74,-5.093 0.327,-0.156 2.66,1.996 1.498,-2.977 0.357,-0.004 1.615,4.89 -0.85,0.282 -1.092,-3.306 z m 4.294,-1.256 0.055,4.112 -0.9,0.008 -0.062,-4.972 3.98,-0.055 0.068,4.977 -0.897,0.015 -0.053,-4.115 -2.192,0.031 z m 5.844,4.408 -0.888,-0.12 0.656,-4.933 0.893,0.122 -0.66,4.932 z m 4.679,-4.212 -3.396,4.141 0.706,0.578 0.615,-0.752 2.089,0.573 0.141,0.966 0.902,-0.141 -0.797,-5.295 z m -1.475,3.235 1.089,-1.336 0.259,1.707 -1.347,-0.371 z m 4.21,3.103 -0.809,-0.382 2.133,-4.502 0.813,0.391 -0.728,1.521 2.249,-0.798 1.014,0.476 -2.689,0.963 1.169,3.829 -1.105,-0.523 -0.978,-3.222 -1.069,2.246 z m 5.163,3.083 c 1.225,0.875 2.85,0.706 3.736,-0.536 0.885,-1.236 0.583,-2.791 -0.705,-3.705 -1.224,-0.877 -2.855,-0.703 -3.738,0.536 -0.884,1.235 -0.581,2.788 0.706,3.705 z m 0.056,-3.16 c 0.584,-0.82 1.653,-0.925 2.452,-0.351 0.855,0.607 1.048,1.616 0.46,2.43 -0.582,0.822 -1.644,0.929 -2.448,0.354 -0.854,-0.609 -1.052,-1.613 -0.464,-2.433 z m 3.04,4.804 2.452,-0.544 0.31,-2.057 0.49,-0.484 2.231,2.26 -0.622,0.616 -1.332,-1.35 -0.263,1.773 -2.088,0.455 1.405,1.421 -0.618,0.609 -2.317,-2.355 0.351,-0.344 z m -50.31,7.031 -0.421,-0.235 1.571,-2.815 0.247,0.134 1.393,2.411 2.302,-0.239 0.357,0.207 -1.503,2.687 -0.417,-0.233 1.14,-2.049 -2.185,0.223 -1.288,-2.236 -1.195,2.144 z m -0.056,3.847 -1.793,-0.68 0.191,-0.523 1.803,0.679 3.377,-0.744 0.136,0.547 -3.054,0.665 1.849,2.523 -0.468,0.324 -2.04,-2.791 z m 1.128,10.886 -4.862,-2.214 -0.168,0.171 -0.038,4.212 0.147,0.175 4.918,-2.14 0.003,-0.205 z m -4.583,1.588 0.026,-3.046 3.444,1.55 -3.47,1.497 z m 0.608,5.307 -0.476,0.067 -0.402,-2.748 4.923,-0.718 0.364,2.461 -0.477,0.072 -0.281,-1.908 -1.406,0.209 0.258,1.762 -0.479,0.065 -0.256,-1.763 -2.089,0.309 0.322,2.191 z m 0.615,2.472 0.719,2.351 -0.457,0.137 -0.949,-3.08 0.275,-0.083 2.703,0.673 1.428,-1.829 0.389,-0.117 0.901,2.945 -0.457,0.141 -0.686,-2.244 -1.354,1.73 -2.511,-0.623 z m 7.78,6.495 -4.364,2.778 -0.299,-0.474 3.494,-2.229 -3.255,-0.254 -0.123,-0.233 1.659,-2.809 -3.828,1.582 -0.219,-0.515 4.777,-1.986 0.159,0.352 -1.874,3.17 3.671,0.288 0.201,0.33 z m 2.485,3.27 c -0.969,-1.152 -2.592,-1.389 -3.75,-0.413 -1.162,0.982 -1.259,2.554 -0.243,3.769 0.966,1.152 2.59,1.392 3.753,0.409 1.167,-0.976 1.261,-2.552 0.24,-3.764 z m -0.597,3.338 c -0.939,0.788 -2.214,0.588 -2.984,-0.324 -0.821,-0.973 -0.746,-2.207 0.192,-2.996 0.934,-0.79 2.215,-0.591 2.978,0.329 0.822,0.968 0.754,2.202 -0.186,2.991 z m 2.979,-0.605 2.367,1.977 -0.308,0.368 -1.799,-1.502 -0.187,2.184 -2.443,0.852 1.886,1.577 -0.308,0.36 -2.472,-2.063 0.177,-0.213 2.63,-0.915 0.2,-2.309 0.258,-0.316 z m 8.511,5.714 0.093,-0.213 -0.526,-0.226 -0.093,0.222 c -1.376,-0.489 -2.772,-0.143 -3.247,0.967 -0.472,1.099 0.166,2.332 1.532,3.025 l -0.153,0.356 0.52,0.227 0.153,-0.36 c 1.39,0.481 2.79,0.137 3.264,-0.967 0.469,-1.102 -0.169,-2.339 -1.543,-3.032 z m -2.046,3.319 c -1.061,-0.553 -1.587,-1.477 -1.21,-2.349 0.376,-0.876 1.461,-1.099 2.534,-0.73 z m 3.071,-0.503 c -0.373,0.875 -1.46,1.09 -2.549,0.728 l 1.328,-3.088 c 1.075,0.56 1.601,1.487 1.221,2.36 z m 2.698,-1.783 0.545,0.144 -1.258,4.816 -0.543,-0.145 z m 3.987,0.719 1.356,5.244 -0.532,0.129 -1.086,-4.189 -2.132,3.777 -0.465,-0.294 2.659,-4.693 0.2,0.025 z m 4.596,0.231 -1.965,5.069 0.51,0.211 0.466,-1.189 2.44,-0.079 0.531,1.147 0.508,-0.219 -2.288,-4.944 -0.203,0.005 z m -0.804,3.606 0.94,-2.448 1.101,2.38 -2.04,0.068 z m 11.492,-5.974 3.842,3.813 -0.392,0.385 -3.069,-3.046 0.098,4.335 -0.559,-0.013 -0.102,-5.392 0.182,-0.081 z m 9.226,-0.089 0.265,0.397 -1.575,1.055 -0.372,-0.561 c 0.411,-0.652 0.747,-1.801 0.251,-2.546 -0.644,-0.966 -1.949,-0.996 -2.865,-0.385 -0.919,0.61 -1.386,1.827 -0.741,2.792 0.496,0.745 1.69,0.876 2.447,0.744 l 0.373,0.557 -1.578,1.051 -0.266,-0.396 0.981,-0.652 c -0.917,0.06 -1.903,-0.211 -2.422,-0.989 -0.845,-1.27 -0.198,-2.817 0.907,-3.551 1.105,-0.742 2.786,-0.747 3.627,0.517 0.531,0.788 0.396,1.802 -0.01,2.619 l 0.976,-0.652 z m 6.03,-14.773 4.4,2.325 -0.259,0.494 -3.981,-2.1 -1.219,2.319 3.98,2.094 -0.261,0.494 -4.403,-2.317 z m 5.797,-2.921 0.452,0.15 -0.869,2.635 -4.728,-1.563 0.781,-2.36 0.452,0.151 -0.604,1.83 1.353,0.444 0.558,-1.692 0.458,0.154 -0.559,1.69 2.005,0.665 0.7,-2.104 z m -3.869,-3.356 4.874,1.013 -0.115,0.549 -4.876,-1.008 z m 3.29,-3.04 c 0.082,-0.869 -0.477,-1.721 -1.262,-1.787 -0.857,-0.08 -1.472,0.499 -1.562,1.45 l -0.128,1.443 4.961,0.444 0.048,-0.559 -2.13,-0.191 0.072,-0.801 z m -0.477,-0.041 -0.071,0.803 -1.875,-0.167 0.079,-0.882 c 0.059,-0.642 0.434,-0.997 1.036,-0.943 0.517,0.044 0.882,0.624 0.831,1.189 z m 1.755,-3.234 -0.132,-2.439 1.135,-0.559 -0.228,-0.501 -4.895,2.396 0.008,0.199 5.108,1.853 0.205,-0.509 -1.202,-0.439 z m -2.958,-1.063 2.361,-1.15 0.104,2.033 -2.466,-0.883 z m -1.552,-3.806 4.897,-0.883 0.1,0.549 -4.896,0.886 -0.101,-0.553 z m 2.722,-6.811 -0.385,-1.11 0.454,-0.159 0.622,1.788 -0.634,0.227 c -0.526,-0.562 -1.556,-1.185 -2.402,-0.889 -1.092,0.384 -1.455,1.635 -1.092,2.674 0.364,1.051 1.421,1.804 2.52,1.421 0.849,-0.297 1.273,-1.415 1.333,-2.183 l 0.636,-0.226 0.622,1.795 -0.455,0.16 -0.389,-1.116 c -0.167,0.897 -0.675,1.791 -1.562,2.096 -1.44,0.502 -2.769,-0.516 -3.205,-1.77 -0.447,-1.255 -0.025,-2.879 1.408,-3.383 0.895,-0.307 1.839,0.074 2.531,0.674 z m -6.349,-3.711 1.162,2.041 0.945,-1.981 2.582,0.063 -1.212,-2.135 0.416,-0.236 1.592,2.798 -0.246,0.145 -2.786,-0.073 -0.995,2.092 -0.355,0.199 -1.521,-2.679 0.42,-0.235 z M 10.289,59.474 5.408,58.522 5.517,57.976 h 0.012 l 3.984,-1.916 -3.49,-0.989 0.177,-0.53 4.88,1.394 -4.585,2.239 3.901,0.75 -0.107,0.551 z m 35.563,32.098 c -1.472,0.314 -2.445,1.628 -2.124,3.111 0.312,1.487 1.655,2.315 3.209,1.987 1.467,-0.315 2.436,-1.632 2.123,-3.111 -0.319,-1.493 -1.662,-2.316 -3.207,-1.987 z m 0.969,4.57 c -1.242,0.267 -2.295,-0.376 -2.549,-1.575 -0.252,-1.196 0.524,-2.227 1.688,-2.474 1.241,-0.265 2.294,0.378 2.55,1.573 0.254,1.197 -0.524,2.227 -1.69,2.475 z m 0.989,-2.577 0.102,0.485 -2.933,0.624 -0.103,-0.49 2.934,-0.618 z m 13.882,-11.238 3.524,3.498 -0.394,0.395 -0.009,-0.005 -4.377,-0.619 2.349,2.76 -0.439,0.339 -3.276,-3.867 5.052,0.685 -2.827,-2.791 0.398,-0.394 z"
           id="path28" /></g><polygon
         class="cls-5"
         points="61.175,12.796 60.845,17.108 64.808,18.842 60.605,19.861 60.18,24.165 57.912,20.483 53.688,21.409 56.489,18.114 54.303,14.383 58.302,16.029 "
         id="polygon28"
         transform="matrix(8,0,0,8,-58.490566,-383.01886)" /><polygon
         class="cls-5"
         points="77.276,23.252 75.491,27.192 78.622,30.176 74.324,29.696 72.453,33.595 71.581,29.359 67.294,28.785 71.054,26.647 70.275,22.393 73.47,25.307 "
         id="polygon29"
         transform="matrix(8,0,0,8,-58.490566,-383.01886)" /><polygon
         class="cls-5"
         points="17.977,12.796 20.85,16.029 24.849,14.383 22.663,18.114 25.464,21.409 21.24,20.483 18.971,24.165 18.547,19.861 14.344,18.842 18.306,17.108 "
         id="polygon30"
         transform="matrix(8,0,0,8,-58.490566,-383.01886)" /><polygon
         class="cls-5"
         points="1.876,23.252 5.681,25.307 8.877,22.393 8.098,26.647 11.857,28.785 7.571,29.359 6.699,33.595 4.828,29.696 0.53,30.176 3.661,27.192 "
         id="polygon31"
         transform="matrix(8,0,0,8,-58.490566,-383.01886)" /><polygon
         class="cls-7"
         points="39.576,3.989 41.133,8.782 46.174,8.782 42.096,11.745 43.654,16.538 39.576,13.576 35.498,16.538 37.056,11.745 32.978,8.782 38.018,8.782 "
         id="polygon32"
         transform="matrix(8,0,0,8,-58.490566,-383.01886)" /><path
         class="cls-7"
         d="m 309.72544,-224.17886 -51.608,-37.496 -51.608,37.496 19.712,-60.672 -51.608,-37.496 h 63.792 l 19.712,-60.672 19.712,60.672 h 63.792 l -51.608,37.496 z m -51.608,-42.456 43.976,31.952 -16.792,-51.696 43.976,-31.952 h -54.352 l -16.8,-51.696 -16.8,51.696 h -54.352 l 43.976,31.952 -16.792,51.696 43.976,-31.952 z"
         id="path32"
         style="stroke-width:8.00001" /></g></g></svg>
