<?xml version="1.0" encoding="UTF-8"?>
<svg id="Calque_2" data-name="Calque 2" xmlns="http://www.w3.org/2000/svg" viewBox="0 0 618.52 792.16">
  <defs>
    <style>
      .cls-1 {
        fill: #1c1b4e;
      }

      .cls-1, .cls-2, .cls-3, .cls-4, .cls-5, .cls-6 {
        stroke-width: 0px;
      }

      .cls-1, .cls-2, .cls-3, .cls-4, .cls-6 {
        fill-rule: evenodd;
      }

      .cls-2 {
        fill: #ffaa2e;
      }

      .cls-3 {
        fill: #1e0e59;
      }

      .cls-4, .cls-5 {
        fill: #fff;
      }

      .cls-6 {
        fill: #9e3715;
      }
    </style>
  </defs>
  <g id="svg2">
    <g>
      <path id="path12" class="cls-2" d="M616.55,198.15c-182.27,32.75-289.85-92.13-307.28-114.22-17.42,22.09-125.01,146.98-307.29,114.22,0,0-46.1,387.35,307.29,594.01,353.39-206.66,307.28-594.01,307.28-594.01"/>
      <path id="path14" class="cls-1" d="M15.42,214.22c-.39,7.13-.74,16.6-.74,28.3,0,39.19,3.86,101.77,22.85,172.64,41.72,155.75,133.21,276.85,271.73,360.27,138.53-83.42,230.02-204.53,271.73-360.27,18.98-70.87,22.85-133.45,22.85-172.64,0-11.7-.34-21.17-.73-28.3-157.07,21.13-257.78-68.36-293.84-108.1-36.05,39.74-136.77,129.23-293.84,108.1"/>
      <path id="path16" class="cls-4" d="M30,234.91c.17,40.29,4.37,101.89,23.04,171.58,40.15,149.9,126.4,267.87,256.23,351.12,129.83-83.26,216.07-201.22,256.23-351.12,18.66-69.7,22.87-131.28,23.03-171.58-135.45,6.74-229.88-57.56-279.26-103.39-49.38,45.83-143.8,110.13-279.26,103.39"/>
      <path id="path18" class="cls-2" d="M257.06,0l12.41,28.08,30.78,3.3-22.87,20.48,6.37,30.29-26.55-15.42-26.84,15.42,6.47-30.01-22.96-20.76,30.54-3.13,12.65-28.25Z"/>
      <path id="path18-2" data-name="path18" class="cls-2" d="M361.46,0l12.41,28.08,30.78,3.3-22.87,20.48,6.37,30.29-26.55-15.42-26.84,15.42,6.47-30.01-22.96-20.76,30.54-3.13,12.65-28.25Z"/>
      <path id="path20" class="cls-1" d="M309.27,303.69c-75.14,0-136.05,61.24-136.05,136.78s60.91,136.78,136.05,136.78,136.04-61.23,136.04-136.78c0-75.54-60.9-136.78-136.04-136.78h0ZM309.27,571.13c-71.78,0-129.98-58.5-129.98-130.67s58.19-130.67,129.97-130.67,129.97,58.51,129.97,130.67-58.19,130.67-129.97,130.67"/>
      <path id="path22" class="cls-2" d="M308.85,649.13l2.64,5.37,5.91.87-4.28,4.18,1.01,5.91-5.28-2.79-5.28,2.79,1.01-5.91-4.27-4.18,5.9-.87,2.64-5.37ZM408.99,609.92l-6.61-5.07.42-8.34-6.84,4.74-7.76-2.97,2.38,8-5.22,6.51,8.31.2,4.54,7,2.76-7.88,8.03-2.2ZM359.47,634.53l-6.6-5.07.41-8.34-6.84,4.74-7.76-2.98,2.38,8-5.22,6.52,8.31.21,4.54,7,2.76-7.89,8.03-2.19ZM323.67,596.2l-1.84,9.33-8.69,3.76,8.26,4.65.88,9.47,6.94-6.47,9.23,2.1-3.97-8.64,4.83-8.18-9.38,1.12-6.26-7.14ZM370.78,592.77l-8.71,5.91-9.78-3.87,2.89,10.17-6.68,8.15,10.52.37,5.65,8.91,3.6-9.93,10.18-2.65-8.29-6.5.63-10.56ZM398.93,594.77l-3.06-9.28,5.88-7.81-9.74.06-5.57-8.03-2.95,9.34-9.31,2.84,7.91,5.71-.19,9.78,7.83-5.79,9.2,3.19ZM439.11,593.4l-8.28-5.14-.48-9.78-7.43,6.33-9.4-2.58,3.71,9.07-5.34,8.19,9.7-.73,6.1,7.64,2.31-9.51,9.1-3.48ZM427.68,557.21l-10.5.31-6.22-8.54-2.96,10.15-9.99,3.3,8.69,5.95.03,10.57,8.33-6.45,10.01,3.23-3.53-9.95,6.15-8.58ZM450.75,530.69l-10.88,4.22-9.65-6.63.63,11.74-9.27,7.17,11.3,3.01,3.92,11.06,6.33-9.87,11.69-.33-7.36-9.1,3.28-11.28ZM316.52,627.13l.02,6.83-5.56,3.87,6.45,2.07,1.96,6.52,3.95-5.53,6.77.15-3.99-5.5,2.21-6.41-6.43,2.14-5.37-4.14ZM208.71,609.92l6.61-5.07-.41-8.34,6.84,4.74,7.76-2.97-2.37,8,5.22,6.51-8.31.2-4.54,7-2.76-7.88-8.03-2.2ZM258.24,634.53l6.61-5.07-.43-8.34,6.84,4.74,7.76-2.98-2.38,8,5.22,6.52-8.31.21-4.54,7-2.76-7.89-8.03-2.19ZM294.03,596.2l1.83,9.33,8.69,3.76-8.26,4.65-.88,9.47-6.94-6.47-9.24,2.1,3.97-8.64-4.82-8.18,9.39,1.12,6.26-7.14ZM246.92,592.77l8.71,5.91,9.79-3.87-2.9,10.17,6.69,8.15-10.51.37-5.65,8.91-3.6-9.93-10.18-2.65,8.29-6.5-.64-10.56ZM218.78,594.77l3.06-9.28-5.87-7.81,9.74.06,5.57-8.03,2.94,9.34,9.31,2.84-7.9,5.71.19,9.78-7.83-5.79-9.21,3.19ZM178.6,593.97l8.28-5.14.48-9.78,7.43,6.33,9.4-2.57-3.7,9.06,5.33,8.19-9.71-.72-6.1,7.62-2.31-9.5-9.1-3.49ZM190.04,557.21l10.5.31,6.21-8.54,2.96,10.15,10,3.3-8.69,5.95-.04,10.57-8.32-6.45-10.01,3.23,3.54-9.95-6.14-8.58ZM166.96,530.69l10.88,4.22,9.64-6.63-.63,11.74,9.26,7.17-11.29,3.01-3.92,11.06-6.35-9.87-11.68-.33,7.36-9.1-3.28-11.28ZM301.19,627.13l-.03,6.83,5.56,3.87-6.45,2.07-1.96,6.52-3.95-5.53-6.76.15,3.98-5.5-2.22-6.41,6.43,2.14,5.39-4.14Z"/>
      <g>
        <path id="path24" class="cls-2" d="M310.58,239.68v.24-.24h0ZM339.07,252.09c-7.28,0-8.54-10.18-8.54-10.18,0,0-.63,11.77-10.45,11.77-9.08,0-9.48-12-9.49-13.77,0,1.77-.41,13.77-9.5,13.77-9.81,0-10.44-11.77-10.44-11.77,0,0-1.27,10.18-8.55,10.18s-10.77-6.36-10.77-6.36l10.45,30.56h57.61l10.45-30.56s-3.48,6.36-10.77,6.36"/>
        <path id="path26" class="cls-2" d="M316.05,230.62c0,3.03-2.45,5.49-5.46,5.49-3.01,0-5.47-2.46-5.47-5.49s2.45-5.5,5.47-5.5,5.46,2.46,5.46,5.5"/>
        <path id="path28" class="cls-2" d="M295.78,234.04c0,3.03-2.44,5.48-5.46,5.48s-5.46-2.45-5.46-5.48,2.45-5.49,5.46-5.49c3.02,0,5.46,2.46,5.46,5.49"/>
        <path id="path30" class="cls-2" d="M275.61,238.58c0,3.03-2.45,5.49-5.46,5.49-3.02,0-5.46-2.46-5.46-5.49s2.44-5.49,5.46-5.49,5.46,2.45,5.46,5.49"/>
        <path id="path32" class="cls-2" d="M325.38,234.04c0,3.03,2.45,5.48,5.46,5.48s5.46-2.45,5.46-5.48c0-3.04-2.44-5.49-5.46-5.49-3.01,0-5.46,2.46-5.46,5.49"/>
        <path id="path34" class="cls-2" d="M345.56,238.58c0,3.03,2.44,5.49,5.45,5.49,3.02,0,5.46-2.46,5.46-5.49s-2.44-5.49-5.46-5.49-5.45,2.45-5.45,5.49"/>
      </g>
      <path id="path36" class="cls-2" d="M309.27,309.79c-71.78,0-129.98,58.51-129.98,130.67s58.19,130.67,129.97,130.67c71.78,0,129.97-58.5,129.97-130.67s-58.19-130.67-129.97-130.67h0ZM309.27,536.95c-53.01,0-95.98-43.19-95.98-96.49s42.97-96.49,95.98-96.49,95.97,43.2,95.97,96.49c0,53.29-42.97,96.49-95.97,96.49"/>
      <path id="path38" class="cls-2" d="M309.27,316.02c-68.36,0-123.77,55.72-123.77,124.44s55.42,124.43,123.77,124.43c68.35,0,123.77-55.71,123.77-124.43s-55.42-124.44-123.77-124.44h0Z"/>
      <path id="path40" class="cls-1" d="M309.27,343.98c-53.01,0-95.98,43.2-95.98,96.49s42.97,96.49,95.98,96.49c53,0,95.97-43.19,95.97-96.49,0-53.29-42.97-96.49-95.97-96.49h0ZM309.27,529.94c-49.15,0-89-40.05-89-89.47s39.84-89.48,88.99-89.48c49.15,0,88.99,40.06,88.99,89.48s-39.84,89.47-88.99,89.47"/>
      <path id="path42" class="cls-6" d="M483.77,336.65c.02.08.06.16.08.25-.05-.06-.07-.11-.11-.16,0-.03.02-.06.03-.08"/>
      <path id="path44" class="cls-4" d="M309.27,529.94c-49.15,0-89-40.05-89-89.47s39.84-89.48,88.99-89.48c49.15,0,88.99,40.06,88.99,89.48s-39.84,89.47-88.99,89.47"/>
      <path id="path46" class="cls-1" d="M395.11,440.46c0,47.66-38.44,86.31-85.84,86.31s-85.84-38.65-85.84-86.31,38.44-86.3,85.84-86.3,85.84,38.64,85.84,86.3"/>
      <path id="path48" class="cls-4" d="M307.16,369.14c-9.14,0-16.91,2.47-16.91,2.47l-14.32,23.98,15.96,19.61s14.72-3.02,34.64,0l15.95-19.61-14.32-23.98s-7.77-2.47-16.91-2.47h-4.09Z"/>
      <path id="path50" class="cls-4" d="M245.76,447.83s13.63,3.02,26.31,3.02c0,0,5.33,17.13,18.01,30.44,0,0-5.46,16.45-8.46,19.46,0,0-24.82,3.85-36.54-16.45-11.73-20.28-3.41-24.27.68-36.47"/>
      <path id="path52" class="cls-4" d="M234.57,464.26c.96-5.62,7.73-18.79,7.73-18.79l-.09-.54c-1.77-12.06.82-31.12.41-32.08-.41-.96-7.65-6.03-7.65-6.03,0,0-.68.54-1.69,2.02-4.13,9.61-6.44,20.22-6.44,31.38,0,7.68,1.1,15.12,3.14,22.15,2.24,2.62,4.59,1.89,4.59,1.89"/>
      <path id="path54" class="cls-4" d="M245.57,408.33s10.64-11.66,24.41-13.71c0,0,11.05-16.86,14.72-23.45,0,0-4.7-5.42-6.88-6.98-16.06,6.42-29.53,17.99-38.36,32.69-1.5,2.65-2.21,4.31-2.21,4.31,0,0,3.54,4.94,8.32,7.13"/>
      <path id="path56" class="cls-4" d="M326.38,420.66s14.19,22.63,15.41,28.1c0,0-3.95,14.95-17.59,29.34,0,0-5.28.44-11.45.67v.14c-1.16,0-2.36,0-3.55-.04-1.18.03-2.37.04-3.54.04v-.14c-6.19-.24-11.46-.67-11.46-.67-13.63-14.4-17.59-29.34-17.59-29.34,1.23-5.48,15.41-28.1,15.41-28.1,0,0,10.63-1.62,19.05-1.62s15.31,1.62,15.31,1.62"/>
      <path id="path58" class="cls-4" d="M372.65,447.83s-13.63,3.02-26.31,3.02c0,0-5.32,17.13-18,30.44,0,0,5.46,16.45,8.46,19.46,0,0,24.81,3.85,36.55-16.45,11.71-20.28,3.4-24.27-.7-36.47"/>
      <path id="path60" class="cls-4" d="M383.84,464.26c-.95-5.62-7.74-18.84-7.74-18.84l.1-.49c1.78-12.06-.82-31.12-.4-32.08.4-.96,7.63-6.03,7.63-6.03,0,0,.69.54,1.71,2.02,4.13,9.61,6.43,20.22,6.43,31.38,0,7.68-1.09,15.12-3.13,22.15-2.24,2.62-4.59,1.89-4.59,1.89"/>
      <path id="path62" class="cls-4" d="M372.08,407.23s-10.11-11.07-23.2-13.02c0,0-10.5-16.02-13.99-22.27,0,0,4.47-5.15,6.54-6.63,15.25,6.1,28.05,17.09,36.44,31.05,1.43,2.51,2.11,4.1,2.11,4.1,0,0-3.37,4.69-7.9,6.77"/>
      <path id="path64" class="cls-4" d="M283.46,505.8c-10.36-.13-25.23-4.38-25.23-4.38l.13,3.63c13.18,10.84,29.96,17.43,48.25,17.73v-5.35c-10.36-.82-23.16-11.62-23.16-11.62"/>
      <path id="path66" class="cls-4" d="M360.19,501.41s-14.86,4.25-25.24,4.39c0,0-12.74,10.76-23.09,11.62v5.36c18.27-.33,35.02-6.9,48.19-17.73l.15-3.63Z"/>
      <path id="path68" class="cls-3" d="M486.42,452.82c-.08-2.94-.37-6.26-1.02-10-3.48-20.34-20.14-31.38-20.14-31.38-1.17-3.2,1.01-8.91,1.49-13.48h.01c.61-3.27-.6-5.54-2.26-7.43-.97-1.14-2.11-2.15-3.13-3.11-2.74-2.65-3.46-5.59-2.19-7.33,1.27-1.73,6.79,3.73,13.74,5.86,5.99,1.84,8.88-1.75,8.88-1.75-5.96,2.56-18.55-8.38-9.78-11.21,9.21-2.97,8.82,7.32,8.82,7.32,3.29-8.16-2.74-9.08-5.22-10.83-2.51-1.76-.08-7.86,5.91-5.19,6,2.68,8.45,2,8.45,2,4.58-.21,3.56-.32,7.04-.64,2.89-.28,2.58,3.08,2.58,3.08,5.92-9.42-7.99-6.77-7.99-6.77-5.3.09-3.81-4.6-3.81-4.6.3-2.19.92-2.87.92-2.87,1.3-2.27,3.97.86,11.79-1.84,4.49-1.55,4.81-4.1,4.81-4.1-13.37,6.24-12.85-4.66-12.75-5.75.11-1.09,1.33-2.58,4.21-3.63,2.87-1.06,6.01-4.8,6.01-4.8,1.45-1.76,2.65,1.23,1.18,3.67-1.47,2.44-1.84,9.06,4.19,8.58,5.64-.46,6.38-10.43,6.47-12.73-.2,2.43-2.29,10.8-5.88,9.63-3.88-1.27-.32-6.08-.32-6.08,2.66-4.51,2.68-8.12.61-10.67-2.07-2.55-6.48-2.33-8.92.46-2.43,2.77-3.82,3.64-5.43,2.32-1.6-1.32.93-3.13,2.1-3.23,1.16-.1,2.09-3.72,2.34-5.24.24-1.53.77-2.72,2.14-3.66,1.36-.94,4.34-6.8,6.88-3.24,2.56,3.55,2.92,6.77,2.92,6.77,1.77-16.14-12.45-11.78-12.45-11.78,3.72-7.1-1.92-10.65-1.92-10.65,1.14-10.53-7.87-13.8-7.87-13.8,1.85,1.03,9.24,7.62,5.87,10.92-3.36,3.29-8.96-.24-8.96-.24.58-6.6-2.85-9.35-2.85-9.35-4.9-1.12-13.4,6.97-13.4,6.97,0,0-2.97-1.54-11.5.3-8.53,1.84-18.59,4.17-21.3,4.51-2.72.35-6.98-1.1-8.46-.82-1.49.28-4.32,1.4-4.78,4.5-.47,3.1-1.53,8.9,2.29,12.29,3.82,3.38,6.14,1.94,8.14,1.58,0,0,3.52-1.5,4.83-.9,1.33.6,11.54,5.26,13.35,7.67,1.81,2.42.39,3.47-2.82,5.29-3.21,1.81-10.33,5.48-15.8,7.17-5.49,1.68-11.63,2.62-13.66,4.8,0,0-.02.01-.02.02-.81.64-1.54,1.42-2.17,2.4-.89,1.38-1.96,2.31-3.11,2.85-3.18-4.22-5.9-8.33-7.55-10.47-2.09-2.7-3.81-3.87-7.35-2.74-1.01-.19-2.2-.07-3.7.45-1.92.68-3.43,3.89-6.04,3.97-.59.16-4.36,3.77-5.8,8.5-1.45,4.72-3.57,9.04-5.21,12.85-1.64,3.82-1.62,11.22-1.62,11.22-1.54,4.03,3.61,12.96,3.61,12.96,0,0,1.36-.87,2.51-1.8.46.89.78,1.44.78,1.44,0,0,2.84-1.79,3.77-2.99.92-1.2,1.53-2.46,3.74-3.54,2.2-1.06,3.44-3.39,3.36-4.02-.08-.61-3.35-3.53-3.35-3.53-4.48-5.68-3.14-10.51-2.5-13.3.64-2.8,3.48-10.07,3.48-10.07.65-1.16,1.51-2.11,2.4-2.74.04.03.09.04.13.1,2.74,2.93,3.62,7.67,4.78,13.58.22,4.07,1.56,10.56,4.22,14.81,2.9,4.62,1.37,11.25,1.37,11.25-5.97,29.59,17.8,46.42,24.71,55.96,6.9,9.54-.16,13.76-6.33,24.57-5.79,10.13,3.11,27.02,6.29,35.39.85,3.19,1.73,6.48,2.33,8.39,1.81,5.79,2.48,6.4.95,9.38-1.53,2.97-18.99,11.35-23.89,13.66-4.92,2.3-7.21,6.19-7.21,6.19-6.46,6.39-7.14,18.99-7.14,18.99,5.7-4.21,12.67-5.45,12.67-5.45,2.78-2.68,1.68-9.5,1.68-9.5,3.18-.87,9.44-7.45,16.16-11.55,6.73-4.11,17.51-4.32,20.31-4.68,2.83-.35,3.29-1.81,2.38-6.79-.55-2.96-.27-10.62.05-15.22,3.02,4.19,4.43,9.98,7.94,15.37,5.74,8.84,5.92,14.75,5.74,18.95-.2,4.2-5.31,20.64-6.29,23.75-.99,3.12-6.05,5.93-6.05,5.93-5.96,2.17-7.72,8.68-7.72,8.68,1.63,1.94,11.87.34,11.87.34,1.74.32,4.26-1.56,4.26-1.56.5-4.38,3.28-8.55,7.5-12.24,4.24-3.68.87-10.42,1.72-20.85.86-10.43,4.09-13.11,5.56-14.95,1.46-1.85,2.14-4.78-.37-7.37-2.51-2.6-5.41-6.35-7.85-15.59-2.42-9.25,4.65-9.43,5.24-13.25.6-3.84,11.76-4.36,13.69-17.57,0,0,1.14-2.07,1.95-6.29,2.05-.05,3.01,1.02,2.78,6.41-.26,6,1.06,7.41,2.68,8.18,1.62.77,3.58.95,6.64,2.81,3.07,1.87.23,6.83-1.77,8.5-2,1.67-5.38,1.27-7.93,3.79-2.55,2.53,1.45,7,3.2,9.11,1.76,2.1,1.32,2.93.42,4.57-.89,1.65-3.5,2.92-3.3,6.88.35,7.35,7.01,8.58,12.25,9.12,4.14.43,4.38,3.14,4.31,4.26.92-6.69-3.4-8.03-5.16-8.47-1.81-.47-6.1-.2-6.5-3.69-.56-4.72,3.49-6.23,5.14-6.79,1.66-.55,2.99-1.49,1.68-3.92-1.31-2.43-.63-3.69.25-4.4.86-.72,1.04-.13,1.04-.13,0,0,.54-.69.58-2.62.04-1.91,1.54-3.03,2.98-3,1.43.02,2.67,1,3.23-.45,0,0-.75-5.05,2.64-5.53,4.62-.65,1.3,4.41,1.3,4.41,0,0,3.49-1.39,1.66-4.47-2.54-4.25-2.33-7.43-.58-8.71,1.76-1.26,4.57-2.21,5.69-7.15,1.12-4.95-4.24-5.81-5.88-8.52-1.63-2.7,3.03-4.47,3.03-4.47-3.17-4.66-9.79-2.55-12.71-1.31-2.93,1.23-7.79.34-5.95-2.43,1.82-2.78,5.88-1.86,5.88-1.86-4.11-4.06-9.51-1.8-12.52-.62-2.06.81-3.02,2.01-4.34,2.52l.02-2.45Z"/>
      <path id="path70" class="cls-3" d="M132.86,463.26c.81,4.22,1.95,6.29,1.95,6.29,1.93,13.21,13.09,13.73,13.69,17.57.58,3.82,7.66,4,5.24,13.25-2.43,9.25-5.33,12.99-7.84,15.59-2.52,2.58-1.83,5.52-.37,7.37,1.46,1.83,4.69,4.52,5.55,14.95.85,10.43-2.52,17.17,1.72,20.85,4.22,3.68,7.01,7.86,7.5,12.24,0,0,2.52,1.88,4.27,1.56,0,0,10.23,1.61,11.86-.34,0,0-1.77-6.51-7.73-8.68,0,0-5.06-2.81-6.05-5.93-.99-3.11-6.09-19.54-6.29-23.75-.2-4.2,0-10.11,5.74-18.95,3.5-5.39,4.91-11.18,7.93-15.37.33,4.6.6,12.26.06,15.22-.91,4.98-.45,6.44,2.37,6.79,2.81.36,13.59.57,20.31,4.68,6.73,4.11,13,10.69,16.17,11.55,0,0-1.1,6.82,1.68,9.5,0,0,6.97,1.24,12.67,5.45,0,0-.69-12.6-7.14-18.99,0,0-2.29-3.9-7.2-6.19-4.91-2.31-22.36-10.68-23.89-13.66-1.53-2.98-.87-3.59.95-9.38.59-1.91,1.48-5.2,2.32-8.39,3.18-8.37,12.08-25.26,6.29-35.39-6.17-10.8-13.22-15.03-6.33-24.57,6.91-9.54,30.68-26.37,24.7-55.96,0,0-1.52-6.63,1.38-11.25,2.66-4.24,4-10.73,4.22-14.81,1.16-5.91,2.03-10.65,4.78-13.58.03-.06.09-.06.12-.1.89.64,1.76,1.59,2.4,2.74,0,0,2.84,7.28,3.48,10.07.64,2.79,1.99,7.62-2.49,13.3,0,0-3.27,2.91-3.35,3.53-.08.62,1.17,2.95,3.36,4.02,2.21,1.08,2.82,2.35,3.74,3.54.92,1.2,3.76,2.99,3.76,2.99,0,0,.32-.55.78-1.44,1.15.93,2.51,1.8,2.51,1.8,0,0,5.14-8.93,3.61-12.96,0,0,.02-7.4-1.62-11.22-1.64-3.82-3.77-8.13-5.21-12.85-1.44-4.73-5.2-8.34-5.8-8.5-2.62-.08-4.12-3.28-6.05-3.97-1.5-.52-2.68-.65-3.69-.45-3.55-1.12-5.27.04-7.35,2.74-1.64,2.14-4.36,6.25-7.55,10.47-1.14-.54-2.22-1.47-3.1-2.85-.63-.98-1.36-1.76-2.17-2.4,0-.01,0-.02-.02-.02-2.03-2.17-8.17-3.12-13.66-4.8-5.48-1.69-12.6-5.35-15.81-7.17-3.2-1.82-4.62-2.87-2.81-5.29,1.8-2.41,12.02-7.07,13.34-7.67,1.32-.6,4.83.9,4.83.9,2,.36,4.33,1.8,8.14-1.58,3.83-3.39,2.77-9.19,2.29-12.29-.46-3.09-3.29-4.22-4.78-4.5-1.48-.28-5.74,1.17-8.46.82-2.72-.35-12.77-2.68-21.31-4.51-8.53-1.84-11.49-.3-11.49-.3,0,0-8.51-8.08-13.41-6.97,0,0-3.43,2.76-2.85,9.35,0,0-5.6,3.53-8.96.24-3.36-3.29,4.02-9.88,5.88-10.92,0,0-9.01,3.27-7.87,13.8,0,0-5.63,3.55-1.92,10.65,0,0-14.22-4.37-12.44,11.78,0,0,.36-3.22,2.92-6.77,2.55-3.55,5.53,2.31,6.89,3.24,1.36.94,1.9,2.13,2.14,3.66.25,1.52,1.19,5.14,2.35,5.24,1.16.11,3.7,1.92,2.09,3.23-1.61,1.32-2.99.45-5.43-2.32-2.43-2.79-6.86-3.01-8.92-.46-2.06,2.55-2.04,6.15.6,10.67,0,0,3.57,4.81-.31,6.08-3.59,1.17-5.68-7.2-5.88-9.63.1,2.3.83,12.27,6.48,12.73,6.03.49,5.66-6.14,4.19-8.58-1.47-2.44-.27-5.44,1.18-3.67,0,0,3.14,3.75,6.01,4.8,2.88,1.05,4.1,2.54,4.21,3.63.1,1.09.62,11.99-12.75,5.75,0,0,.33,2.55,4.82,4.1,7.81,2.71,10.48-.42,11.78,1.84,0,0,.62.68.92,2.87,0,0,1.49,4.7-3.81,4.6,0,0-13.91-2.65-7.99,6.77,0,0-.32-3.36,2.57-3.08,3.49.33,2.45.43,7.05.64,0,0,2.44.68,8.44-2,5.99-2.67,8.43,3.43,5.92,5.19-2.5,1.75-8.52,2.67-5.23,10.83,0,0-.39-10.29,8.82-7.32,8.77,2.83-3.8,13.77-9.78,11.21,0,0,2.9,3.59,8.89,1.75,6.95-2.14,12.47-7.6,13.74-5.86,1.28,1.74.56,4.68-2.19,7.33-1.02.95-2.15,1.96-3.13,3.11-1.66,1.89-2.86,4.17-2.26,7.43h.01c.49,4.58,2.67,10.29,1.49,13.48,0,0-16.65,11.04-20.14,31.38-.64,3.75-.93,7.06-1.02,10l.02,2.45c-1.33-.51-2.29-1.71-4.34-2.51-3.01-1.19-8.42-3.44-12.52.62,0,0,4.07-.92,5.9,1.86,1.83,2.77-3.04,3.66-5.96,2.43-2.92-1.24-9.53-3.35-12.71,1.31,0,0,4.67,1.77,3.03,4.47-1.64,2.7-7,3.57-5.88,8.52,1.12,4.93,3.94,5.89,5.69,7.15,1.75,1.28,1.96,4.46-.57,8.71-1.84,3.08,1.64,4.47,1.64,4.47,0,0-3.31-5.07,1.31-4.41,3.39.48,2.65,5.53,2.65,5.53.56,1.46,1.8.48,3.24.45,1.44-.03,2.94,1.08,2.97,3,.03,1.93.58,2.62.58,2.62,0,0,.18-.58,1.05.13.88.71,1.55,1.97.24,4.4-1.3,2.43.02,3.38,1.68,3.92,1.65.56,5.7,2.07,5.14,6.79-.41,3.49-4.69,3.22-6.51,3.69-1.76.44-6.09,1.78-5.16,8.47-.08-1.12.17-3.83,4.3-4.26,5.25-.54,11.9-1.77,12.26-9.12.19-3.96-2.42-5.23-3.31-6.88-.89-1.64-1.34-2.47.43-4.57,1.76-2.12,5.76-6.58,3.2-9.11-2.56-2.52-5.93-2.11-7.93-3.79-2-1.67-4.84-6.62-1.78-8.5,3.07-1.86,5.03-2.04,6.64-2.81,1.63-.77,2.94-2.17,2.68-8.18-.23-5.39.73-6.46,2.78-6.41"/>
      <path id="path72" class="cls-5" d="M230.04,531.74l-2.77,2.63-4.5-4.75-.98-1.04-.36-.38-.29-.3-.24-.25-.19-.2-.16-.17-.13-.14-.11-.11c-.12-.12-.22-.24-.3-.36-.09-.12-.15-.23-.19-.35-.18-.19-.34-.4-.48-.63-.14-.24-.33-.58-.57-1.04-.95-1.79-.94-3.78.02-5.95.36-.81.85-1.63,1.46-2.45.61-.83,1.33-1.64,2.17-2.43,2.95-2.8,5.62-4.2,8.03-4.2,2.05,0,3.99.98,5.83,2.92,1.22,1.29,2.01,2.65,2.37,4.09.11.44.18.88.2,1.33.03.44,0,.88-.08,1.31-.15.86-.5,1.78-1.07,2.75-.88,1.54-1.96,2.92-3.25,4.14-1.97,1.87-4.12,3.01-6.45,3.43l2.05,2.16ZM233.68,515.02c-1.05-1.11-2.25-1.55-3.58-1.31-1.34.24-2.86,1.17-4.56,2.79-1.47,1.4-2.49,2.7-3.07,3.91-.76,1.62-.48,3.11.82,4.48,1.22,1.28,2.62,1.66,4.19,1.12,1.21-.42,2.62-1.39,4.22-2.91,1.44-1.37,2.4-2.72,2.89-4.06.53-1.49.23-2.84-.9-4.02ZM232.06,537.9l18.34-13.24,3.48,2.49-6.59,21.64-3.54-2.53,1.52-5.03-5.4-3.86-4.27,3.06-3.55-2.53ZM249.18,530.09l-6.4,4.66,4.05,2.89,2.35-7.55ZM260.47,545.85l-3.37,7.42-3.38-1.54,8.87-19.52,7.75,3.52c2.22,1.01,3.61,2.06,4.19,3.16.38.71.56,1.54.54,2.47-.02.94-.24,1.86-.65,2.78-.84,1.85-1.88,3.11-3.1,3.76-.73.37-1.57.56-2.52.54.25.27.46.52.63.76.17.24.3.48.39.72.17.44.25,1.01.25,1.74-.02.5-.09,1.01-.2,1.53-.07.29-.15.61-.26.96-.11.35-.24.7-.4,1.05-.29.64-.52,1.25-.69,1.84-.12.4-.21.83-.27,1.27l-3.79-1.72c.09-.51.38-1.43.85-2.75.48-1.33.73-2.34.74-3.03.04-.7-.11-1.35-.45-1.93-.42-.67-1.22-1.28-2.4-1.81l-2.72-1.24ZM262.05,542.38l4.73,2.15c.78.36,1.41.47,1.88.34.7-.2,1.29-.84,1.78-1.91.54-1.18.51-2.11-.1-2.8-.21-.23-.61-.49-1.22-.76l-4.73-2.15-2.34,5.14ZM274.19,560.01l11.88-19.25,4.17.97,2.19,22.51-4.24-.99-.52-5.23-6.46-1.5-2.77,4.46-4.24-.99ZM287.01,546.25l-4.13,6.75,4.84,1.12-.72-7.88ZM299.65,564.53l.55-21.43,9.85.25c1.55.04,2.66.28,3.35.73.8.52,1.39,1.37,1.79,2.54.28.8.4,1.63.38,2.49-.03,1.1-.29,2.12-.79,3.07-.5.95-1.12,1.6-1.87,1.96,1.66.99,2.46,2.7,2.4,5.11-.04,1.38-.33,2.55-.89,3.5-.48.81-1.1,1.35-1.84,1.64-.75.29-1.84.42-3.28.38l-9.64-.25ZM303.68,551.98l5.05.13c.52.01.9,0,1.14-.07.25-.05.48-.19.72-.4.56-.5.85-1.2.87-2.09.02-.84-.22-1.49-.71-1.93-.37-.3-.97-.46-1.82-.49l-5.13-.13-.13,4.97ZM303.46,560.8l5.05.13c.52.01.9,0,1.15-.07.25-.05.49-.19.71-.4.56-.5.85-1.2.87-2.11.02-.84-.22-1.49-.71-1.94-.37-.3-.97-.46-1.82-.48l-5.13-.13-.13,5ZM320.99,564.78l3.32-22.38,4.21-.76,10.89,19.83-4.29.77-2.54-4.6-6.53,1.17-.78,5.19-4.29.77ZM327.35,547.08l-1.13,7.83,4.89-.88-3.77-6.95ZM346.74,545.78l7.98-3.16,4.7,11.84-7.25,2.87c-1.29.51-2.34.8-3.16.85-.81.05-1.63-.09-2.45-.42-2.34-.93-4.29-3.37-5.86-7.33-1.02-2.58-1.47-4.88-1.34-6.92.1-1.48.56-2.72,1.37-3.71.81-.99,2.04-1.82,3.7-2.47l7.08-2.81,1.41,3.55-6.69,2.65c-1.44.57-2.34,1.37-2.69,2.42-.4,1.22-.14,3.01.8,5.37.49,1.22,1.02,2.28,1.6,3.16.58.89,1.15,1.51,1.7,1.86.48.32,1.03.46,1.66.45.62-.01,1.33-.17,2.14-.49l3.12-1.24-1.88-4.74-4.52,1.79-1.41-3.55ZM377.29,529.29l2.07,3.21-8.73,5.62,4.8,7.44-3.12,2.01-6.07-9.41c-.87-1.34-1.53-2.49-1.99-3.44-.46-.95-.73-1.72-.81-2.3-.26-1.47-.08-2.77.54-3.9.62-1.12,1.79-2.23,3.5-3.34l5.07-3.27,2.07,3.21-4.66,3.01c-.69.45-1.26.86-1.68,1.24-.43.39-.71.72-.83.99-.28.47-.37,1-.29,1.61.08.6.35,1.26.8,1.96l.62.96,8.73-5.62ZM377.97,516.95l14.83,15.48-2.68,2.57-14.83-15.48,2.68-2.57ZM385.37,524.52l-2.49-12.27,3.53-3.38,2.07,12.68,12.52,3.03-3.54,3.39-12.08-3.45Z"/>
      <path id="path74" class="cls-5" d="M285.78,338.8l-3.01.7-3.01-12.98-2.5,4.25-1.23-3.99,2.72-4.62,3.01-.7,4.02,17.34ZM301.56,329.05l-4.86.37c-1.09.08-1.92.08-2.46,0-.55-.09-1.01-.31-1.4-.66-1.01-.87-1.58-2.16-1.71-3.87-.15-2,.44-3.58,1.79-4.77.84-.72,2.17-1.15,4-1.29,1.3-.1,2.35-.04,3.18.18.82.21,1.55.63,2.18,1.25.77.78,1.39,1.84,1.85,3.2.41,1.24.67,2.51.77,3.81.15,1.97-.04,3.78-.59,5.44-.54,1.65-1.48,2.76-2.82,3.32-.73.31-1.83.52-3.3.63l-5.33.41-.24-3.13,4.41-.34c1.96-.15,3.2-.48,3.7-.98.32-.32.55-.8.7-1.44.15-.63.2-1.34.13-2.13h0ZM301.32,325.91c-.1-1.3-.39-2.31-.86-3.02-.31-.47-.71-.79-1.2-.95-.49-.17-1.19-.22-2.1-.15-1.04.08-1.74.28-2.09.6-.46.43-.65,1.06-.59,1.89.06.74.34,1.3.83,1.68.32.25.88.34,1.66.28l4.34-.33ZM314.33,327.28c-.73-.63-1.24-1.3-1.52-1.98-.28-.68-.39-1.5-.31-2.47.16-2.09,1.05-3.44,2.66-4.05.68-.25,2.08-.3,4.2-.13.68.05,1.3.11,1.84.17.55.07,1.04.12,1.47.17.3.02.56.07.81.16.24.09.48.2.72.34.77.45,1.33,1.17,1.67,2.18.25.77.35,1.58.28,2.44-.14,1.9-.99,3.2-2.54,3.9.62.49,1.05.95,1.29,1.39.44.81.62,1.76.53,2.86-.1,1.3-.59,2.43-1.48,3.4-.43.48-1.04.8-1.83.94-.36.06-.84.1-1.43.1-.59,0-1.27-.02-2.03-.08-.46-.04-.82-.07-1.1-.1-1.09-.12-1.68-.18-1.74-.19-.65-.05-1.23-.21-1.71-.46-.49-.26-.9-.61-1.25-1.05-.78-1.04-1.12-2.21-1.02-3.53.08-1.07.4-1.98.95-2.72.3-.41.81-.84,1.53-1.28h0ZM319.45,321.65c-1.25-.09-2.06-.08-2.45.05-.69.23-1.08.87-1.16,1.9-.09,1.13.22,1.85.93,2.15.11.04.36.1.76.16.39.06.92.12,1.6.18.39.03.77.05,1.14.07.37.02.66.02.85.01.2,0,.39-.05.58-.11.63-.24.97-.86,1.05-1.86.09-1.13-.26-1.86-1.05-2.2-.34-.15-1.09-.27-2.25-.35h0ZM318.86,329.01c-1.27-.1-2.09-.07-2.46.08-.67.25-1.05.9-1.13,1.96-.09,1.17.21,1.91.89,2.22.11.04.36.09.76.16.39.07.92.12,1.59.17.38.03.75.05,1.12.07.36.02.65.02.86.01.21-.01.39-.05.56-.13.62-.24.96-.89,1.05-1.94.09-1.15-.25-1.91-1.02-2.26-.34-.15-1.08-.27-2.21-.35h0ZM347.8,324.45l-.87,3.04-12.48,11.66-3.62-1.03,12.78-11.59-8.82-2.52.86-3.02,12.15,3.47Z"/>
      <path id="path76" class="cls-5" d="M340.34,533.86l1.85-.63c.56.92,1.35,1.2,2.38.85,1-.34,1.45-1.05,1.35-2.12l1.85-.63c.23.88.27,1.66.12,2.34-.28,1.33-1.14,2.24-2.57,2.73-1.07.36-2.05.32-2.94-.11-.46-.24-.86-.55-1.21-.95-.35-.4-.63-.89-.82-1.48"/>
    </g>
  </g>
</svg>